{"title":"The Condemned 2 2015 720p WEB-DL DD5.1 H264","uid":12707851,"size":2968908623,"categoryP":"video","categoryS":"hd___movies","magnet":"?xt=urn:btih:119b14e74a985d0babaa1fc2dc33a4fd18e0b03f&amp;dn=The+Condemned+2+2015+720p+WEB-DL+DD5.1+H264&amp;tr=udp%3A%2F%2Ftracker.leechers-paradise.org%3A6969&amp;tr=udp%3A%2F%2Fzer0day.ch%3A1337&amp;tr=udp%3A%2F%2Fopen.demonii.com%3A1337&amp;tr=udp%3A%2F%2Ftracker.coppersurfer.tk%3A6969&amp;tr=udp%3A%2F%2Fexodus.desync.com%3A6969","seeders":0,"leechers":1,"uploader":"TheRival","files":5,"time":1446859386,"description":"Screens: \nhttp://extraimago.com/image/ZTJ \nhttp://extraimago.com/image/ZTK \nhttp://extraimago.com/image/ZTZ \nhttp://extraimago.com/image/ZTe \nhttp://extraimago.com/image/ZT4\r\n\r\nVideo\r\nID                                       : 1\r\nFormat                                   : AVC\r\nFormat/Info                              : Advanced Video Codec\r\nFormat profile                           :   \r\nFormat settings, CABAC                   : No\r\nFormat settings, ReFrames                : 2 frames\r\nCodec ID                                 : V_MPEG4/ISO/AVC\r\nDuration                                 : 1h 30mn\r\nBit rate                                 : 3 914 Kbps\r\nWidth                                    : 1 280 pixels\r\nHeight                                   : 716 pixels\r\nDisplay aspect ratio                     : 16:9\r\nFrame rate mode                          : Constant\r\nFrame rate                               : 23.976 fps\r\nColor space                              : YUV\r\nChroma subsampling                       : 4:2:0\r\nBit depth                                : 8 bits\r\nScan type                                : Progressive\r\nBits/(Pixel*Frame)                       : 0.178\r\nStream size                              : 2.47 GiB (89%)\r\nTitle                                    : The.Condemned.2.2015.720p.WEB-DL.DD5.1.H264-RARBG\r\nLanguage                                 : English\r\nDefault                                  : Yes\r\nForced                                   : No\r\nColor range                              : Limited\r\nColor primaries                          : BT.709\r\nTransfer characteristics                 : BT.709\r\nMatrix coefficients                      : BT.709\r\n\r\nAudio\r\nID                                       : 2\r\nFormat                                   : AC-3\r\nFormat/Info                              : Audio Coding 3\r\nMode extension                           : CM (complete main)\r\nFormat settings, Endianness              : Big\r\nCodec ID                                 : A_AC3\r\nDuration                                 : 1h 30mn\r\nBit rate mode                            : Constant\r\nBit rate                                 : 384 Kbps\r\nChannel(s)                               : 6 channels\r\nChannel positions                        : Front: L C R, Side: L R, LFE\r\nSampling rate                            : 48.0 KHz\r\nCompression mode                         : Lossy\r\nStream size                              : 248 MiB (9%)\r\nTitle                                    : The.Condemned.2.2015.720p.WEB-DL.DD5.1.H264-RARBG\r\nLanguage                                 : English\r\nDefault                                  : Yes\r\nForced                                   : No\r\n\r\nText\r\nID                                       : 3\r\nFormat                                   : UTF-8\r\nCodec ID                                 : S_TEXT/UTF8\r\nCodec ID/Info                            : UTF-8 Plain Text\r\nLanguage                                 : English\r\nDefault                                  : No\r\nForced                                   : No\r\n\r\nMenu\r\n00:00:00.000                             : en:1\r\n00:10:52.000                             : en:2\r\n00:20:41.000                             : en:3\r\n00:30:29.000                             : en:4\r\n00:41:34.000                             : en:5\r\n00:50:31.000                             : en:6\r\n00:58:35.000                             : en:7\r\n01:09:40.000                             : en:8\r\n01:23:30.000                             : en:9","torrent":{"xt":"urn:btih:119b14e74a985d0babaa1fc2dc33a4fd18e0b03f","amp;dn":"The+Condemned+2+2015+720p+WEB-DL+DD5.1+H264","amp;tr":["udp%3A%2F%2Ftracker.leechers-paradise.org%3A6969","udp%3A%2F%2Fzer0day.ch%3A1337","udp%3A%2F%2Fopen.demonii.com%3A1337","udp%3A%2F%2Ftracker.coppersurfer.tk%3A6969","udp%3A%2F%2Fexodus.desync.com%3A6969"],"infoHash":"119b14e74a985d0babaa1fc2dc33a4fd18e0b03f","infoHashBuffer":{"type":"Buffer","data":[17,155,20,231,74,152,93,11,171,170,31,194,220,51,164,253,24,224,176,63]},"announce":[],"urlList":[]}}